<?xml version="1.0" encoding="utf-8"?>
<!-- Generator: Adobe Illustrator 27.9.0, SVG Export Plug-In . SVG Version: 6.00 Build 0)  -->
<svg version="1.1" id="Lager_1" xmlns="http://www.w3.org/2000/svg" xmlns:xlink="http://www.w3.org/1999/xlink" x="0px" y="0px"
	 viewBox="0 0 495.85 513.71" style="enable-background:new 0 0 495.85 513.71;" xml:space="preserve">
<style type="text/css">
	.st0{fill:#FFFFFF;}
</style>
<g id="P9Gbna_00000007421656712660225680000003219931042211093377_">
	<g>
		<path class="st0" d="M235.76,472.47c-109.42-0.12-206.03-76.59-230.3-185.49c-5.96-26.72-6.88-53.72-3.53-80.95
			C13.07,115.56,77.99,36.84,168.6,9.86c28.4-8.46,57.39-11.64,86.93-8.9c70.44,6.53,127.07,38.27,169.81,94.39
			c24.6,32.3,39.18,68.99,44.61,109.3c1.83,13.6,2.2,27.21,1.8,40.88c-0.02,0.61-0.26,1.22-0.4,1.83c-0.52-0.36-1.12-0.64-1.54-1.08
			c-6.02-6.42-13.27-10.55-22.06-11.64c-2.54-0.31-2.71-1.82-2.89-3.79c-0.79-8.78-1.27-17.62-2.59-26.33
			c-6.86-45.11-26.69-83.8-58.86-116.03c-31.68-31.73-69.76-52-114.11-58.43c-73.85-10.7-136.92,11.47-187.91,66.14
			c-27.87,29.89-45,65.56-51.34,105.9c-9.31,59.24,4.01,113.31,40.54,160.96c32.9,42.91,76.51,69.03,129.73,78.79
			c21.62,3.97,43.4,4.12,65.18,1c3.95-0.57,4.03-0.54,4.07,3.12c0.06,6.5,0.05,13,0.01,19.5c-0.03,4.17-0.05,4.45-4.44,4.85
			C255.36,471.2,245.55,471.77,235.76,472.47z"/>
		<path class="st0" d="M289.1,398.21c0-36.32-0.01-72.64,0.01-108.96c0-6.82-0.48-6.06,6.26-6.11c5.66-0.04,11.33-0.01,16.99-0.01
			c3.51,0,4.1-0.3,4.59,3.93c1.25,10.88,7.04,18.58,17.61,22.04c14.76,4.82,29.97-5.14,32.38-20.98c0.1-0.66,0.2-1.33,0.15-1.99
			c-0.19-2.52,1.18-3.03,3.38-3.02c14.49,0.05,28.99,0.07,43.48-0.02c2.64-0.02,3.68,0.7,3.97,3.56
			c1.12,10.92,6.78,18.71,17.26,22.33c14.89,5.15,30.45-4.93,32.77-20.95c0.12-0.82,0.16-1.66,0.16-2.49
			c0.01-1.64,0.77-2.39,2.45-2.39c7.66,0.03,15.33-0.04,22.99,0.12c0.73,0.01,1.82,1.2,2.07,2.04c0.37,1.23,0.16,2.64,0.16,3.97
			c0.01,72.64,0.02,145.28,0,217.91c0,7.3,0.52,6.49-6.41,6.49c-64.64,0.02-129.28,0.01-193.92,0.01c-0.5,0-1,0-1.5,0
			c-4.81-0.06-4.86-0.06-4.86-5.03C289.08,471.84,289.09,435.03,289.1,398.21C289.09,398.21,289.09,398.21,289.1,398.21z
			 M392.4,490.96c25.83,0,51.65,0.02,77.48-0.01c5-0.01,5.1-0.18,5.2-4.97c0.02-1,0.01-2,0.01-3c0-48.16,0.01-96.31-0.01-144.47
			c0-7.48,1.11-7.6-7.61-7.6c-47.32,0-94.64,0-141.97,0c-3.33,0-6.67-0.03-10,0.01c-5.65,0.07-5.65,0.09-5.72,5.5
			c-0.01,0.5,0,1,0,1.5c0,48.66,0,97.31,0,145.97c0,1.33,0.04,2.67,0.04,4c-0.01,2.08,1.07,3.02,3.1,3.02c1.5,0,3,0.05,4.5,0.05
			C342.42,490.96,367.41,490.96,392.4,490.96z"/>
		<path class="st0" d="M252.15,276c-5.2,0.02-8.34-1.55-10.41-4.99c-2.06-3.42-3.97-6.94-6.05-10.35c-2.04-3.35-4.48-4.04-7.98-2.24
			c-2.81,1.45-5.46,3.2-8.27,4.65c-6.02,3.1-11.5,1.66-15.15-3.98c-1.54-2.37-2.96-4.84-4.24-7.36c-3.03-5.99-1.48-11.52,4.17-15.11
			c2.39-1.52,4.9-2.84,7.32-4.29c4.7-2.82,5.18-4.51,2.45-9.25c-13.47-23.37-26.72-46.87-40.55-70.02
			c-8.21-13.74-4.64-18.6,6.88-24.51c4.53-2.32,8.85-3.31,13.07-0.1c1.91,1.45,3.37,3.66,4.6,5.78
			c9.32,15.96,18.52,31.99,27.77,47.99c5.33,9.23,10.65,18.46,16.02,27.66c2.14,3.67,2.22,3.68,6.04,1.48
			c18.33-10.55,36.64-21.12,54.96-31.69c1.44-0.83,2.86-1.71,4.33-2.49c6.96-3.7,12.39-2.16,16.48,4.67
			c1.03,1.71,2.02,3.45,2.98,5.2c3.93,7.16,2.43,12.76-4.57,16.84c-9.21,5.36-18.46,10.66-27.68,15.99
			c-10.24,5.91-20.47,11.83-30.7,17.76c-4.35,2.53-4.34,2.56-1.75,7.11c1.98,3.47,4.08,6.88,5.95,10.41
			c3.28,6.21,1.73,11.75-4.21,15.44c-2.26,1.4-4.54,2.81-6.95,3.94C254.89,275.38,252.92,275.76,252.15,276z"/>
		<path class="st0" d="M426.15,276.62c0-3.16-0.13-6.33,0.02-9.48c0.42-8.88,7.85-15.89,16.72-15.91c8.9-0.02,16.44,6.9,16.79,15.79
			c0.26,6.48,0.28,12.98-0.01,19.46c-0.39,9.02-7.71,15.53-16.91,15.47c-9.1-0.06-16.24-6.83-16.6-15.84
			C426.04,282.95,426.15,279.78,426.15,276.62z"/>
		<path class="st0" d="M358.74,276.88c0,2.99,0.08,5.99-0.02,8.98c-0.3,9.35-7.44,16.13-16.84,16.07
			c-9.41-0.07-16.5-6.85-16.73-16.2c-0.14-5.99-0.13-11.98,0-17.97c0.2-9.23,7.47-16.39,16.6-16.52c9.24-0.13,16.73,7.2,16.97,16.66
			C358.81,270.89,358.75,273.88,358.74,276.88z"/>
		<path class="st0" d="M66.72,222.03c3.99,0,7.97-0.1,11.96,0.02c6.69,0.2,10.69,4.22,10.97,10.99c0.12,2.82,0.12,5.65-0.01,8.47
			c-0.3,6.39-4.23,10.68-10.66,10.9c-8.29,0.29-16.61,0.27-24.91-0.01c-6.38-0.22-10.38-4.46-10.76-10.85
			c-0.18-2.98-0.18-5.99,0.01-8.96c0.42-6.4,4.55-10.36,10.95-10.53C58.41,221.93,62.57,222.02,66.72,222.03z"/>
		<path class="st0" d="M251.69,406.32c0,3.99,0.11,7.98-0.02,11.96c-0.2,6.14-3.48,10.08-9.54,10.86c-3.75,0.48-7.66,0.5-11.4,0.02
			c-5.98-0.78-9.4-4.86-9.51-10.92c-0.14-8.14-0.17-16.28,0.02-24.41c0.15-6.35,4.43-10.48,10.75-10.72c2.98-0.12,5.98-0.12,8.97,0
			c6.34,0.27,10.46,4.37,10.7,10.77C251.81,398.01,251.68,402.17,251.69,406.32C251.69,406.32,251.69,406.32,251.69,406.32z"/>
		<path class="st0" d="M221.97,66.51c0-4-0.09-8,0.02-12c0.18-6.53,3.95-10.62,10.41-11.16c2.98-0.25,6.01-0.22,8.99-0.03
			c6.43,0.41,10.67,4.32,10.94,10.8c0.34,8.32,0.36,16.67-0.03,24.99c-0.31,6.78-4.61,10.37-11.51,10.56c-2.5,0.07-5,0.08-7.5,0.01
			c-7.15-0.2-11.14-4.11-11.31-11.16c-0.1-4-0.02-8-0.02-12C221.97,66.51,221.97,66.51,221.97,66.51z"/>
		<path class="st0" d="M170.78,95.6c-0.08,4.48-1.39,7.49-4.37,9.44c-3.05,2-6.19,3.92-9.49,5.47c-5.29,2.48-10.74,0.84-13.84-4.25
			c-4.32-7.1-8.51-14.28-12.45-21.59c-3.04-5.63-1.36-11.23,4.04-14.68c2.66-1.7,5.39-3.32,8.22-4.69
			c5.07-2.45,10.68-1.22,13.65,3.54c4.67,7.46,8.91,15.19,13.19,22.88C170.5,93.11,170.6,94.87,170.78,95.6z"/>
		<path class="st0" d="M79.47,128.62c2,0.7,4.15,1.14,5.98,2.15c6.83,3.78,13.62,7.65,20.31,11.67c5.81,3.5,7.39,9,4.41,14.97
			c-1.4,2.82-2.98,5.58-4.75,8.18c-3.31,4.89-8.81,6.5-14,3.72c-7.61-4.08-15.1-8.41-22.43-12.97c-4.75-2.95-6.14-8.54-3.73-13.6
			c1.5-3.14,3.3-6.16,5.19-9.08C72.51,130.49,75.56,129.05,79.47,128.62z"/>
		<path class="st0" d="M391.7,131.08c4.72,0.04,7.79,1.57,9.84,4.67c1.92,2.9,3.7,5.93,5.18,9.07c2.49,5.26,0.94,10.85-4.05,13.92
			c-7.07,4.35-14.26,8.52-21.57,12.46c-5.81,3.13-11.46,1.37-15.02-4.29c-1.5-2.39-2.94-4.83-4.2-7.35
			c-2.91-5.79-1.54-11.33,3.95-14.69c7.08-4.33,14.32-8.4,21.58-12.44C388.95,131.57,390.83,131.33,391.7,131.08z"/>
		<path class="st0" d="M66.13,323.26c0.01-5.13,1.64-8.32,5.02-10.34c7.28-4.34,14.56-8.67,22.02-12.68
			c5.33-2.87,11.05-1.17,14.37,3.9c1.64,2.5,3.13,5.1,4.48,7.77c3.04,6.03,1.56,11.52-4.22,15c-6.83,4.12-13.72,8.13-20.72,11.94
			c-6.17,3.36-11.72,1.76-15.43-4.14c-1.41-2.25-2.78-4.54-3.93-6.93C66.88,326.02,66.41,324.08,66.13,323.26z"/>
		<path class="st0" d="M172.22,376.62c-0.8,2.14-1.34,4.42-2.44,6.4c-3.62,6.54-7.35,13.02-11.19,19.44
			c-3.76,6.28-9.34,7.82-15.72,4.46c-2.64-1.39-5.28-2.84-7.74-4.52c-4.65-3.17-6.38-8.65-3.77-13.6
			c4.11-7.78,8.54-15.41,13.18-22.89c2.86-4.62,8.23-6,13.17-3.73c3.31,1.52,6.5,3.36,9.55,5.36
			C170.35,369.58,171.91,372.65,172.22,376.62z"/>
		<path class="st0" d="M343.38,80.64c-0.67,2.02-1.05,4.19-2.06,6.02c-3.7,6.68-7.52,13.29-11.46,19.83
			c-3.88,6.45-9.49,7.88-16.12,4.29c-2.33-1.26-4.67-2.55-6.89-4c-5.14-3.35-6.89-8.84-4.01-14.29c3.95-7.48,8.21-14.81,12.66-22.01
			c3.27-5.29,8.76-6.62,14.33-3.86c2.82,1.4,5.54,3.02,8.21,4.7C341.4,73.42,343.07,76.53,343.38,80.64z"/>
		<path class="st0" d="M405.66,221.01c4.32,0,8.65-0.21,12.95,0.05c8.62,0.52,11.13,8.04,9.85,15.24c-0.15,0.86-1.51,1.66-2.47,2.19
			c-4.72,2.63-8.76,6.05-11.87,10.44c-1.44,2.04-3.15,2.62-5.48,2.56c-4.65-0.11-9.3,0.05-13.95-0.04
			c-8.06-0.16-12.23-4.34-12.41-12.36c-0.06-2.49-0.11-4.99,0.05-7.47c0.43-6.45,4.46-10.37,10.87-10.63
			c2.16-0.09,4.32-0.03,6.48-0.03c1.99,0,3.99,0,5.98,0C405.66,220.98,405.66,220.99,405.66,221.01z"/>
		<path class="st0" d="M355.94,398.66c-6.82,0-13.63-0.06-20.45,0.03c-2.32,0.03-3.27-0.78-3.26-3.17
			c0.06-13.8,0.05-27.59,0.01-41.39c-0.01-2.07,0.74-3.01,2.91-3c13.96,0.05,27.93,0.05,41.89,0.01c2.3-0.01,2.76,1.22,2.74,3.14
			c-0.04,5.15,0,10.31,0,15.46c0,8.31,0.04,16.62-0.03,24.93c-0.03,3.86-0.12,3.94-3.88,3.98
			C369.24,398.72,362.59,398.67,355.94,398.66C355.94,398.67,355.94,398.66,355.94,398.66z"/>
		<path class="st0" d="M453.76,448.3c0,6.66-0.07,13.31,0.03,19.97c0.04,2.51-0.81,3.58-3.42,3.57c-13.64-0.07-27.29-0.05-40.93,0
			c-2.35,0.01-3.22-0.94-3.21-3.27c0.06-13.64,0.06-27.29,0.01-40.93c-0.01-2.28,0.79-3.34,3.18-3.33
			c13.64,0.04,27.29,0.05,40.93-0.02c2.6-0.01,3.49,1.02,3.44,3.56C453.69,434.66,453.76,441.48,453.76,448.3z"/>
		<path class="st0" d="M380.57,448.02c0,6.48,0.04,12.97-0.01,19.45c-0.03,4.24-0.12,4.4-4.03,4.42
			c-13.13,0.06-26.26,0.05-39.4-0.02c-3.89-0.02-4.01-0.15-4.03-3.9c-0.06-13.3,0.04-26.6-0.07-39.89
			c-0.03-2.91,1.19-3.76,3.84-3.75c13.3,0.05,26.6-0.02,39.89,0.05c3.56,0.02,3.77,0.33,3.8,4.19
			C380.61,435.05,380.57,441.53,380.57,448.02z"/>
		<path class="st0" d="M429.41,351.12c6.48,0,12.97-0.05,19.45,0.02c3.92,0.04,4.21,0.19,4.24,3.77c0.09,13.3,0.09,26.6,0,39.9
			c-0.02,3.62-0.33,3.81-4.18,3.83c-12.97,0.05-25.94,0.05-38.9,0c-4.04-0.01-4.18-0.12-4.2-4.27c-0.07-12.97-0.07-25.94-0.02-38.9
			c0.02-4.2,0.19-4.3,4.66-4.33C416.78,351.09,423.1,351.12,429.41,351.12z"/>
	</g>
</g>
</svg>
