<?xml version="1.0" encoding="utf-8"?>
<!-- Generator: Adobe Illustrator 27.9.0, SVG Export Plug-In . SVG Version: 6.00 Build 0)  -->
<svg version="1.1" id="Lager_1" xmlns="http://www.w3.org/2000/svg" xmlns:xlink="http://www.w3.org/1999/xlink" x="0px" y="0px"
	 viewBox="0 0 495.78 513.7" style="enable-background:new 0 0 495.78 513.7;" xml:space="preserve">
<style type="text/css">
	.st0{fill:#FFFFFF;}
</style>
<g>
	<path class="st0" d="M267.62,444.51c-1.04-0.9-2.36-1.39-3.72-1.39c-0.25,0-0.5,0.02-0.74,0.05c-9.28,1.23-18.58,1.85-27.64,1.85
		c-11.87,0-23.72-1.07-35.21-3.18c-53.52-9.81-97.17-36.32-129.73-78.78c-36.26-47.28-49.9-101.44-40.54-160.96
		c6.37-40.57,23.65-76.2,51.34-105.9c42.54-45.62,93.91-68.75,152.68-68.75c11.41,0,23.26,0.88,35.23,2.61
		c43.27,6.27,81.66,25.93,114.11,58.43c32.26,32.31,52.06,71.35,58.86,116.03c0.96,6.34,1.49,12.85,2,19.19l0.03,0.35
		c0.15,1.92,0.31,3.83,0.48,5.75c0.22,2.56,2.15,4.65,4.68,5.09c4.87,0.84,9.43,2.7,13.58,5.53c0.96,0.66,2.08,0.99,3.2,0.99
		c0.91,0,1.82-0.22,2.65-0.66c1.86-0.98,3.02-2.91,3.02-5.02c-0.01-11.3-0.65-21.47-1.94-31.09c-5.51-40.9-20.52-77.67-44.61-109.3
		c-42.77-56.15-99.9-87.91-169.81-94.39C248.65,0.32,241.7,0,234.84,0c-22,0-44.3,3.32-66.26,9.86
		C124.43,23.01,85.31,48.69,55.45,84.14c-29.52,35.04-48.03,77.19-53.54,121.9c-3.43,27.82-2.24,55.06,3.53,80.94
		c11.7,52.48,41.25,99.91,83.22,133.54c41.68,33.4,93.84,51.85,146.88,51.95c0,0,0.01,0,0.01,0c0.14,0,0.27,0,0.4-0.01
		c2.54-0.18,5.08-0.35,7.63-0.52l0.71-0.05c6.57-0.44,13.36-0.9,20.12-1.5c2.91-0.26,5.15-2.69,5.17-5.61
		c0.04-6.09,0.04-11.33,0-16.01C269.56,447.12,268.85,445.58,267.62,444.51z M263.89,464.73c-6.65,0.59-13.43,1.05-20,1.49
		c-2.78,0.19-5.57,0.38-8.35,0.57c-51.76-0.1-102.66-18.11-143.34-50.71c-40.96-32.83-69.81-79.12-81.23-130.35
		c-5.63-25.25-6.78-51.84-3.44-79.02c5.37-43.62,23.44-84.74,52.24-118.94c29.15-34.6,67.33-59.66,110.42-72.5
		c21.44-6.39,43.19-9.62,64.64-9.62c6.68,0,13.46,0.31,20.14,0.93c68.27,6.33,124.06,37.34,165.83,92.18
		c23.49,30.84,38.12,66.71,43.5,106.62c1.25,9.32,1.88,19.31,1.89,30.33c-4.83-3.3-10.12-5.45-15.81-6.44
		c-0.18-2.02-0.34-4.03-0.5-6.05c-0.51-6.41-1.05-13.04-2.04-19.58c-6.98-45.9-27.32-85.99-60.45-119.18
		C354.07,51.1,314.6,30.9,270.09,24.45c-12.24-1.77-24.36-2.67-36.04-2.67c-60.4,0-113.16,23.74-156.82,70.56
		c-28.48,30.54-46.24,67.17-52.79,108.88c-9.6,61.12,4.41,116.73,41.65,165.29c33.44,43.61,78.26,70.83,133.2,80.91
		c11.83,2.17,24.02,3.27,36.24,3.27c9.31,0,18.85-0.64,28.38-1.9C263.93,453.51,263.93,458.66,263.89,464.73z"/>
	<path class="st0" d="M495.77,507.2c0.01-61.31,0.01-122.61,0-183.92v-34.27c0.03-1.51-0.54-2.98-1.59-4.06
		c-1.05-1.09-2.49-1.71-4.01-1.73c-4.13-0.05-8.28-0.05-12.3-0.05c0,0-4.32,0-4.32,0c-1.5,0-2.94,0.6-4.01,1.66
		c-0.85,0.84-1.4,1.93-1.59,3.09c-0.01,0.04-0.01,0.08-0.02,0.12c-1.84,12.72-12.5,22.31-24.8,22.31c-2.69,0-5.37-0.46-7.97-1.35
		c-9.88-3.41-15.63-10.48-17.1-21c-0.39-2.8-2.79-4.89-5.62-4.89c-0.01,0-0.02,0-0.03,0c-6.51,0.04-13.27,0.05-20.61,0.05
		c-6.41,0-12.81-0.01-19.24-0.04c-0.01,0-0.01,0-0.02,0c-2.82,0-5.22,2.1-5.62,4.9l-0.02,0.11c-1.95,12.87-12.38,22.2-24.79,22.2
		c-2.55,0-5.11-0.41-7.59-1.22c-10.1-3.3-15.98-10.4-17.49-21.09c-0.39-2.8-2.78-4.88-5.61-4.88c0,0-8.69-0.02-9.84-0.02
		c-2.08,0-4.17,0-6.23,0.02l-0.64,0c-3.13,0.01-5.66,2.55-5.65,5.68l0,0.43c-0.01,26.97-0.01,53.95-0.01,80.92l0,28
		c-0.01,0.11-0.01,0.22-0.01,0.33v26.37c0,27.72,0,55.44,0.01,83.16c0,3.13,2.54,5.67,5.67,5.67l95.52,0c33.03,0,66.07,0,99.12-0.01
		c0,0,0.71,0,0.72,0c1.5,0,2.94-0.6,4-1.66c1.07-1.07,1.67-2.52,1.66-4.03L495.77,507.2z M489.39,508.02
		c-33.06,0.01-66.09,0.01-99.12,0.01l-95.52,0c-0.01-27.72-0.01-55.43-0.01-83.15v-26.37c0.01-0.1,0.01-0.2,0.01-0.3l0-28.03
		c0-26.97,0-53.95,0.01-80.92l0-0.44l0.64,0c2.07-0.02,4.14-0.02,6.21-0.02c1.82,0,8.38,0.01,9.84,0.02
		c1.81,12.84,9.17,21.71,21.35,25.69c3.05,1,6.2,1.5,9.35,1.5c15.24,0,28.02-11.36,30.39-27.02c0.01-0.06,0.02-0.12,0.03-0.19
		c6.43,0.02,12.85,0.04,19.26,0.04c7.35,0,14.12-0.02,20.64-0.05c1.76,12.63,8.95,21.46,20.86,25.57c3.19,1.1,6.5,1.66,9.82,1.66
		c15.1,0,28.17-11.68,30.41-27.16c0,0,0-0.01,0-0.01c1.44,0,2.88,0,4.32,0c4.02,0,8.14,0,12.23,0.05c0,0.13,0,0.27,0,0.4l0,33.99
		c0.01,61.31,0.01,122.61,0,183.92l0,0.82C489.88,508.02,489.64,508.02,489.39,508.02z"/>
	<path class="st0" d="M467.55,325.24l-142.06,0l-5.71-0.01c-1.45,0-2.9,0-4.35,0.02c-9.63,0.12-11.22,3.37-11.32,11.1
		c0,0.39,0,0.77,0,1.15v146.38c0,0.67,0.01,1.33,0.02,2c0.01,0.66,0.02,1.32,0.02,1.99c-0.01,3.18,1.3,5.17,2.4,6.27
		c1.11,1.11,3.11,2.44,6.37,2.44c0.72,0,1.43,0.01,2.15,0.03c0.78,0.01,1.56,0.03,2.35,0.03l74.98,0l40.51,0
		c12.32,0,24.65,0,36.97-0.02c8.06-0.01,10.7-2.57,10.87-10.52c0.02-0.76,0.01-1.52,0.01-2.28l0-36.95c0-36.12,0-72.24-0.01-108.35
		c0-0.8,0.01-1.52,0.02-2.15c0.06-3.13,0.11-6.09-2.27-8.52C475.94,325.24,472.6,325.24,467.55,325.24z M475.09,336.26l0,0.17
		c-0.01,0.62-0.02,1.31-0.02,2.08c0.02,36.12,0.02,72.23,0.01,108.35l0,36.97c0,0.71,0,1.43-0.01,2.14
		c-0.08,3.59-0.72,4.26-0.75,4.29c-0.03,0.03-0.75,0.68-4.46,0.68c-12.32,0.01-24.64,0.02-36.97,0.02l-115.5-0.01
		c-0.75,0-1.5-0.01-2.25-0.03c-0.75-0.01-1.5-0.03-2.25-0.03c-1.05,0-1.84-0.26-2.36-0.77c-0.5-0.5-0.74-1.25-0.74-2.25
		c0-0.65-0.01-1.3-0.02-1.95l0-0.14c-0.01-0.64-0.02-1.28-0.02-1.91v-146.4c0-0.35,0-0.71,0-1.07c0.05-3.85,0.53-4.58,0.63-4.69
		c0.01-0.01,0.81-0.77,5.09-0.82c1.43-0.02,2.85-0.02,4.28-0.02l5.72,0.01l142.06,0c4.36,0,6.09,0.08,6.9,0.9
		C475.07,332.44,475.15,333.38,475.09,336.26z"/>
	<path class="st0" d="M263.6,237.65c8.89-5.16,17.79-10.3,26.68-15.44l4.01-2.32c3.25-1.88,6.5-3.75,9.76-5.63l0.26-0.15
		c5.9-3.4,11.79-6.79,17.67-10.22c6.95-4.04,8.48-9.71,4.57-16.84c-0.99-1.81-2-3.56-2.98-5.2c-2.67-4.46-5.84-6.62-9.69-6.62
		c-2.07,0-4.35,0.66-6.8,1.96c-1,0.53-1.97,1.11-2.91,1.67c-0.47,0.28-0.94,0.56-1.42,0.83l-13.96,8.05
		c-13.66,7.88-27.33,15.77-41,23.64c-1.71,0.98-2.63,1.5-3.34,1.5c-0.73,0-1.2-0.41-2.7-2.98c-4.38-7.5-8.72-15.02-13.06-22.54
		L218,168.81c-6.54-11.34-13.31-23.07-20.02-34.57c-1.18-2.02-2.65-4.29-4.61-5.78c-1.81-1.37-3.7-2.04-5.79-2.04
		c-2.11,0-4.43,0.68-7.28,2.15c-5.76,2.95-9.83,5.76-11,9.83c-1.04,3.64,0.23,8.16,4.12,14.68c10.01,16.76,19.88,33.98,29.44,50.67
		c3.7,6.46,7.4,12.91,11.12,19.36c2.74,4.76,2.31,6.4-2.45,9.25c-0.98,0.59-1.98,1.16-2.98,1.73c-1.43,0.81-2.91,1.66-4.34,2.56
		c-5.68,3.61-7.2,9.11-4.17,15.11c1.26,2.48,2.68,4.96,4.24,7.36c2.36,3.65,5.53,5.58,9.15,5.58c1.92,0,3.94-0.54,6-1.6
		c1.4-0.72,2.71-1.49,4.17-2.34c1.33-0.78,2.71-1.59,4.1-2.31c1.27-0.65,2.37-0.97,3.38-0.97c0.65,0,2.65,0,4.6,3.21
		c1.12,1.84,2.2,3.71,3.24,5.53l0.08,0.14c0.9,1.57,1.8,3.14,2.74,4.69c1.33,2.21,3.61,4.77,9.5,4.97c0.05,0,0.11,0,0.16,0
		c0.5,0,1.04-0.07,1.51-0.19c0.96-0.25,2.41-0.62,3.74-1.24c2.43-1.14,4.72-2.56,6.95-3.94c5.92-3.67,7.45-9.3,4.21-15.44
		c-1.23-2.33-2.53-4.54-3.9-6.89c-0.69-1.17-1.37-2.34-2.05-3.52c-1.94-3.4-1.73-4.35-1.72-4.36
		C260.13,240.39,260.44,239.49,263.6,237.65z M256.93,247.57c0.68,1.2,1.38,2.39,2.08,3.58c1.34,2.29,2.6,4.44,3.78,6.66
		c1.87,3.54,1.24,5.85-2.19,7.97c-2.08,1.29-4.23,2.62-6.37,3.63c-0.84,0.4-1.94,0.68-2.73,0.88c-0.02,0.01-0.05,0.01-0.07,0.02
		c-3.57-0.12-4.27-1.29-4.84-2.23c-0.94-1.56-1.85-3.14-2.75-4.72c-1.06-1.85-2.16-3.77-3.32-5.66c-2.99-4.9-6.79-5.92-9.44-5.92
		c-1.93,0-3.88,0.52-5.97,1.6c-1.54,0.79-3,1.65-4.41,2.48c-1.33,0.78-2.6,1.52-3.86,2.17c-1.25,0.64-2.4,0.97-3.4,0.97
		c0,0,0,0-0.01,0c-0.62,0-2.46-0.01-4.39-2.99c-1.45-2.23-2.77-4.54-3.94-6.84c-1.69-3.35-1.03-5.74,2.15-7.76
		c1.3-0.83,2.67-1.6,4.11-2.42c1.04-0.59,2.07-1.18,3.09-1.79c7.4-4.44,8.73-9.5,4.44-16.94c-3.71-6.44-7.41-12.89-11.11-19.35
		c-9.56-16.69-19.45-33.94-29.49-50.75c-3.61-6.04-3.92-8.89-3.54-10.21c0.5-1.76,3.01-3.72,8.14-6.35
		c1.99-1.02,3.53-1.52,4.69-1.52c0.59,0,1.33,0.11,2.36,0.89c1.17,0.89,2.29,2.67,3.14,4.12c6.79,11.63,13.64,23.5,20.26,34.98
		c2.5,4.33,10.45,18.11,10.45,18.11c4.35,7.53,8.69,15.05,13.07,22.56c1.5,2.58,3.38,5.79,7.6,5.79c2.26,0,3.99-0.99,6.17-2.25
		c13.67-7.87,27.34-15.75,41-23.64l13.96-8.05c0.49-0.28,0.98-0.57,1.47-0.86c0.93-0.55,1.81-1.07,2.68-1.54
		c1.59-0.85,3.02-1.29,4.14-1.29c0.68,0,2.5,0,4.82,3.87c0.96,1.6,1.93,3.29,2.87,5.01c2.45,4.47,1.85,6.71-2.46,9.22
		c-5.96,3.47-11.93,6.91-17.9,10.35c-3.26,1.88-6.51,3.75-9.76,5.63l-4.01,2.32c-8.9,5.14-17.8,10.29-26.69,15.45
		C253.69,236.85,252.79,240.32,256.93,247.57z"/>
	<path class="st0" d="M426.11,279.6c-0.02,2.13-0.05,4.33,0.04,6.5c0.36,8.97,7.49,15.78,16.63,15.84h0.09
		c9.19,0,16.41-6.65,16.79-15.47c0.27-6.19,0.27-12.73,0.01-19.46c-0.34-8.71-7.87-15.79-16.79-15.79
		c-8.95,0.02-16.3,7.01-16.72,15.91c-0.1,2.18-0.08,4.37-0.05,6.49c0.01,1,0.03,1.99,0.02,2.99c0,0.91-0.01,1.82-0.02,2.73
		L426.11,279.6z M431.82,267.41c0.28-5.88,5.15-10.5,11.08-10.51c5.91,0,10.88,4.64,11.11,10.34c0.26,6.56,0.26,12.95,0,18.99
		c-0.25,5.82-4.93,10.04-11.12,10.04h-0.09c-6.12-0.04-10.73-4.41-10.97-10.4c-0.08-2.02-0.06-4.06-0.04-6.22
		c0.01-1.01,0.02-2.03,0.02-3.04c0-1.02-0.01-2.04-0.02-3.07C431.75,271.42,431.73,269.4,431.82,267.41z"/>
	<path class="st0" d="M341.92,301.93h0.1c9.38,0,16.4-6.76,16.7-16.07c0.07-2.04,0.05-4.02,0.03-6.12c-0.01-0.95-0.02-1.9-0.01-2.86
		c0-0.91,0.01-1.82,0.01-2.81c0.01-2.12,0.03-4.12-0.02-6.18c-0.23-9.34-7.58-16.66-16.79-16.66l-0.18,0
		c-9.27,0.13-16.41,7.23-16.6,16.52c-0.14,6.39-0.14,12.27,0,17.97C325.37,295.05,332.41,301.86,341.92,301.93z M330.81,267.88
		c0.13-6.17,4.87-10.89,11.01-10.97l0.16,0c6.05,0,10.91,4.89,11.06,11.13c0.05,1.99,0.04,3.97,0.02,6.07
		c-0.01,0.92-0.01,1.84-0.01,2.77c0,0.97,0.01,1.94,0.01,2.91c0.02,2.04,0.03,3.97-0.03,5.9c-0.2,6.23-4.74,10.58-11.03,10.58h-0.1
		c-6.38-0.04-10.95-4.43-11.1-10.67C330.68,279.97,330.68,274.18,330.81,267.88z"/>
	<path class="st0" d="M58.99,221.99c-1.58,0-3.16,0.01-4.74,0.06c-6.44,0.18-10.53,4.11-10.95,10.53c-0.19,2.9-0.19,5.91-0.01,8.96
		c0.39,6.48,4.51,10.64,10.76,10.85c4.31,0.15,8.63,0.22,12.82,0.22c4.06,0,8.13-0.07,12.08-0.21c6.27-0.22,10.36-4.39,10.66-10.9
		c0.13-2.72,0.13-5.57,0.01-8.47c-0.28-6.79-4.28-10.79-10.97-10.99c-1.34-0.04-2.79-0.06-4.54-0.06c-1.23,0-2.46,0.01-3.7,0.02
		c-1.23,0.01-2.46,0.02-3.72,0.02c-1.28,0-2.56-0.01-3.84-0.02C61.57,222,60.28,221.99,58.99,221.99z M70.47,227.68
		c1.22-0.01,2.43-0.02,3.65-0.02c1.69,0,3.08,0.02,4.37,0.06c3.68,0.11,5.32,1.77,5.47,5.56c0.11,2.74,0.11,5.42-0.01,7.97
		c-0.25,5.33-3.97,5.46-5.19,5.5c-3.89,0.13-7.89,0.2-11.89,0.2c-4.14,0-8.38-0.07-12.63-0.22c-1.23-0.04-4.98-0.17-5.3-5.53
		c-0.17-2.81-0.17-5.59,0.01-8.25c0.23-3.48,1.96-5.14,5.45-5.24c1.53-0.04,3.06-0.05,4.58-0.05c1.28,0,2.56,0.01,3.83,0.02
		c1.29,0.01,2.59,0.02,3.88,0.02C67.98,227.7,69.22,227.69,70.47,227.68z"/>
	<path class="st0" d="M251.64,393.87c-0.24-6.37-4.34-10.5-10.7-10.77c-1.44-0.06-2.93-0.09-4.41-0.09c-1.5,0-3.03,0.03-4.56,0.09
		c-6.39,0.25-10.61,4.46-10.75,10.72c-0.17,7.29-0.17,15.28-0.02,24.41c0.11,6.17,3.57,10.15,9.51,10.92
		c1.8,0.23,3.68,0.35,5.57,0.35c1.94,0,3.9-0.12,5.83-0.37c5.94-0.76,9.33-4.61,9.54-10.86c0.09-2.72,0.07-5.37,0.05-8.17
		c0,0,0-0.1,0-0.1c-0.01-1.12-0.02-2.25-0.02-3.37c0-0.1,0-0.22-0.01-0.32c0-1.28,0.01-2.57,0.02-3.86
		C251.72,399.52,251.75,396.74,251.64,393.87z M245.98,418.09c-0.13,4.03-1.93,5.08-4.59,5.42c-1.69,0.22-3.41,0.33-5.11,0.33
		c-1.65,0-3.28-0.1-4.84-0.31c-2.09-0.27-4.5-1.13-4.57-5.39c-0.15-9.07-0.15-16.98,0.02-24.19c0.09-4.12,2.94-5.09,5.31-5.19
		c1.47-0.06,2.92-0.09,4.33-0.09c1.41,0,2.82,0.03,4.17,0.09c3.42,0.14,5.14,1.88,5.27,5.32c0.1,2.73,0.08,5.45,0.05,8.33
		c-0.01,1.3-0.02,2.61-0.02,3.91c0,0.11,0,0.22,0.01,0.32c0,1.14,0.01,2.28,0.02,3.42C246.05,412.84,246.07,415.46,245.98,418.09z"
		/>
	<path class="st0" d="M221.93,70.24c-0.02,2.7-0.03,5.5,0.03,8.27c0.12,4.95,2.18,10.91,11.31,11.16c1.18,0.03,2.36,0.05,3.54,0.05
		c1.32,0,2.64-0.02,3.96-0.06c4.12-0.11,11.1-1.63,11.51-10.56c0.37-7.96,0.38-16.37,0.03-24.99c-0.26-6.34-4.34-10.38-10.94-10.8
		c-1.55-0.1-3.05-0.15-4.46-0.15c-1.56,0-3.09,0.06-4.53,0.18c-6.43,0.54-10.22,4.6-10.41,11.16c-0.08,2.75-0.06,5.54-0.04,8.28
		c0.01,1.24,0.02,2.48,0.02,3.73c-0.01,0.12-0.01,0.24-0.01,0.36C221.94,68,221.94,69.12,221.93,70.24z M227.61,62.75
		c-0.02-2.67-0.04-5.42,0.04-8.08c0.1-3.68,1.66-5.37,5.21-5.67c1.29-0.11,2.65-0.16,4.06-0.16c1.3,0,2.68,0.05,4.1,0.14
		c4.87,0.31,5.54,3.21,5.63,5.37c0.34,8.47,0.33,16.71-0.03,24.5c-0.11,2.42-0.68,5.01-6,5.15c-1.27,0.03-2.54,0.05-3.81,0.05
		c-1.13,0-2.25-0.01-3.38-0.05c-4.18-0.12-5.7-1.59-5.8-5.63c-0.07-2.67-0.05-5.43-0.03-8.1c0.01-1.13,0.01-2.26,0.02-3.39
		c0.01-0.12,0.01-0.25,0.01-0.37C227.63,65.26,227.62,64.01,227.61,62.75z"/>
	<path class="st0" d="M152.03,111.65c1.62,0,3.26-0.38,4.88-1.14c3.5-1.64,6.76-3.69,9.49-5.47c2.76-1.81,4.14-4.57,4.35-8.71
		c0.02-0.41,0-0.82-0.07-1.23l-0.04-0.26c-0.16-1.02-0.32-1.86-0.69-2.69c-0.07-0.15-0.14-0.29-0.22-0.43l-1.21-2.18
		c-3.81-6.85-7.75-13.94-11.98-20.7c-1.89-3.03-4.99-4.77-8.5-4.77c-1.71,0-3.5,0.43-5.16,1.23c-2.46,1.19-5.07,2.68-8.22,4.69
		c-5.49,3.5-7.04,9.12-4.04,14.68c3.61,6.69,7.68,13.75,12.45,21.59C145.15,109.68,148.41,111.65,152.03,111.65z M137.7,74.77
		c2.96-1.89,5.39-3.27,7.65-4.37c0.9-0.43,1.82-0.66,2.69-0.66c1.08,0,2.6,0.36,3.69,2.1c4.15,6.63,8.05,13.66,11.83,20.45
		l1.21,2.18c0.09,0.21,0.21,0.9,0.27,1.27c0.02,0.1,0.03,0.21,0.05,0.3c-0.16,3.18-1.17,3.84-1.79,4.24
		c-2.56,1.67-5.61,3.58-8.79,5.08c-0.85,0.4-1.68,0.6-2.47,0.6c-2.07,0-3.38-1.45-4.12-2.67c-4.71-7.75-8.74-14.72-12.31-21.33
		C135.02,80.9,133.25,77.62,137.7,74.77z"/>
	<path class="st0" d="M68.97,156.34c7.34,4.56,14.88,8.92,22.43,12.97c1.68,0.9,3.42,1.36,5.16,1.36c3.43,0,6.65-1.85,8.84-5.08
		c1.67-2.47,3.27-5.22,4.75-8.18c3-6.02,1.39-11.48-4.41-14.97c-6.09-3.66-12.73-7.48-20.31-11.67c-1.25-0.69-2.68-1.12-4.07-1.54
		l-0.72-0.22c-0.54-0.17-1.11-0.25-1.68-0.25c-0.37,0-0.74,0.04-1.11,0.11c-3.33,0.66-5.76,2.23-7.43,4.8
		c-2.23,3.44-3.88,6.33-5.19,9.08C62.8,147.87,64.33,153.46,68.97,156.34z M70.36,145.19c1.21-2.53,2.74-5.21,4.83-8.44
		c0.62-0.95,1.52-1.88,3.78-2.33c0.25,0.08,0.51,0.16,0.76,0.23c1.15,0.35,2.23,0.67,2.96,1.08c7.52,4.16,14.1,7.94,20.13,11.57
		c3.26,1.96,3.93,4.23,2.26,7.58c-1.36,2.74-2.83,5.27-4.37,7.53c-0.66,0.97-2.07,2.59-4.15,2.59c-0.79,0-1.63-0.23-2.48-0.69
		c-7.44-3.99-14.88-8.29-22.12-12.79C69.33,149.89,69.41,147.18,70.36,145.19z"/>
	<path class="st0" d="M406.7,144.82c-1.38-2.91-3.07-5.88-5.18-9.07c-1.96-2.96-4.8-4.44-8.94-4.64c-0.09,0-0.18-0.01-0.27-0.01
		c-0.43,0-0.86,0.05-1.28,0.14l-0.22,0.05c-1.2,0.27-2.37,0.55-3.41,1.13c-7,3.9-14.44,8.07-21.58,12.44
		c-5.42,3.32-6.9,8.81-3.95,14.69c1.14,2.26,2.47,4.6,4.2,7.35c2.37,3.76,5.7,5.83,9.37,5.83c1.86,0,3.75-0.52,5.65-1.54
		c7-3.78,14.25-7.97,21.57-12.46C407.58,155.71,409.21,150.12,406.7,144.82z M399.69,153.91c-7.22,4.44-14.38,8.57-21.29,12.3
		c-1.06,0.57-2.05,0.86-2.96,0.86c-2.12,0-3.66-1.73-4.57-3.18c-1.63-2.59-2.88-4.78-3.94-6.88c-2.13-4.24,0.03-6.2,1.84-7.31
		c7.04-4.31,14.42-8.45,21.38-12.32c0.41-0.23,1.29-0.42,1.88-0.55c0.09-0.02,0.18-0.04,0.27-0.06c2.95,0.15,3.84,1.12,4.49,2.11
		c1.96,2.97,3.53,5.71,4.79,8.37C402.86,149.95,402.17,152.38,399.69,153.91z"/>
	<path class="st0" d="M67.71,327.78c1.24,2.56,2.68,4.94,3.93,6.93c2.41,3.84,5.62,5.87,9.28,5.87c1.96,0,4.03-0.58,6.14-1.73
		c6.38-3.48,13.16-7.39,20.72-11.94c5.74-3.46,7.28-8.93,4.22-15c-1.37-2.71-2.87-5.32-4.48-7.77c-2.2-3.36-5.52-5.29-9.1-5.29
		c-1.79,0-3.56,0.47-5.27,1.39c-7.64,4.12-15.28,8.67-22.02,12.68c-2,1.19-4.7,3.45-5,9.27c-0.03,0.64,0.04,1.28,0.23,1.9
		C66.65,325.03,67.07,326.46,67.71,327.78z M74.04,317.79c6.69-3.99,14.27-8.51,21.8-12.56c0.88-0.47,1.75-0.71,2.59-0.71
		c1.66,0,3.2,0.97,4.36,2.73c1.49,2.27,2.89,4.7,4.16,7.21c1.72,3.4,1.09,5.67-2.08,7.59c-7.49,4.51-14.19,8.38-20.5,11.82
		c-1.27,0.69-2.42,1.04-3.43,1.04c-0.61,0-2.46,0-4.48-3.22c-1.17-1.86-2.51-4.07-3.63-6.38c-0.43-0.9-0.77-2.02-1.01-2.84
		C71.98,319.02,73.21,318.28,74.04,317.79z"/>
	<path class="st0" d="M135.1,402.39c2.5,1.71,5.2,3.18,7.74,4.52c2.19,1.15,4.3,1.74,6.28,1.74c3.75,0,7.02-2.14,9.44-6.2
		c3.91-6.53,7.67-13.07,11.19-19.44c0.75-1.36,1.25-2.88,1.74-4.37l0.29-0.87c0.3-0.9,0.37-1.87,0.2-2.8
		c-0.59-3.29-2.15-5.72-4.76-7.44c-3.27-2.15-6.48-3.95-9.54-5.36c-1.55-0.71-3.14-1.07-4.73-1.07c-3.47,0-6.55,1.75-8.45,4.8
		c-4.82,7.77-9.25,15.47-13.17,22.89C128.81,393.57,130.36,399.16,135.1,402.39z M136.35,391.45c3.87-7.31,8.24-14.9,12.98-22.55
		c0.86-1.39,2.11-2.12,3.63-2.12c0.77,0,1.56,0.19,2.36,0.55c2.8,1.29,5.76,2.95,8.79,4.94c0.93,0.62,1.91,1.54,2.3,3.71
		c-0.1,0.3-0.2,0.6-0.3,0.9c-0.42,1.28-0.82,2.5-1.31,3.39c-3.48,6.3-7.22,12.78-11.1,19.27c-2.06,3.44-3.96,3.44-4.58,3.44
		c-1.05,0-2.27-0.36-3.63-1.08c-2.4-1.26-4.94-2.65-7.19-4.19C136.43,396.44,134.93,394.12,136.35,391.45z"/>
	<path class="st0" d="M306.85,106.78c2.23,1.46,4.53,2.72,6.89,4c2.36,1.28,4.61,1.93,6.69,1.93c3.78,0,6.95-2.09,9.43-6.21
		c3.98-6.62,7.84-13.29,11.46-19.83c0.69-1.25,1.09-2.69,1.48-4.08l0.25-0.89c0.24-0.82,0.29-1.68,0.14-2.52
		c-0.59-3.47-2.27-6.04-5.16-7.85c-2.36-1.48-5.19-3.2-8.21-4.7c-1.88-0.93-3.74-1.4-5.55-1.4c-3.56,0-6.68,1.87-8.77,5.26
		c-4.78,7.73-8.92,14.92-12.66,22.01C300.01,97.84,301.55,103.32,306.85,106.78z M307.85,95.14c3.68-6.97,7.76-14.06,12.47-21.67
		c1.59-2.57,3.37-2.57,3.95-2.57c0.93,0,1.95,0.27,3.04,0.81c2.79,1.38,5.46,3.01,7.71,4.42c1.12,0.7,2.19,1.69,2.58,3.99
		c-0.09,0.31-0.18,0.63-0.27,0.94c-0.31,1.13-0.61,2.19-0.98,2.86c-3.59,6.49-7.41,13.1-11.35,19.66c-2.08,3.46-3.89,3.46-4.57,3.46
		c-1.11,0-2.49-0.43-3.99-1.24c-2.25-1.22-4.44-2.42-6.49-3.76C307.12,100.19,306.41,97.87,307.85,95.14z"/>
	<path class="st0" d="M394.68,251.45c1.17,0.02,2.34,0.03,3.51,0.03c1.09,0,2.18-0.01,3.27-0.01c1.09-0.01,2.18-0.01,3.27-0.01
		c1.3,0,2.6,0.01,3.96,0.04c0,0,0.21,0,0.23,0c0.43,0,0.81-0.02,1.18-0.07c1.39-0.18,2.66-0.86,3.57-1.92
		c0.12-0.13,0.26-0.31,0.45-0.57c2.94-4.15,6.88-7.64,11.73-10.37c1.68-0.95,2.76-2.68,2.88-4.61c0.22-3.68-0.64-6.95-2.42-9.21
		c-1.78-2.25-4.37-3.49-7.7-3.69c-1.45-0.09-3-0.13-4.87-0.13c-1.35,0-2.69,0.02-4.04,0.04c-1.35,0.02-2.69,0.04-4.02,0.04
		c-0.26-0.04-0.52-0.06-0.79-0.06c0,0-5.35,0-5.35,0c-0.6,0-1.21,0-1.81-0.01c-0.61-0.01-1.21-0.01-1.82-0.01
		c-0.9,0-1.8,0.01-2.69,0.05c-6.39,0.27-10.45,4.24-10.87,10.63c-0.17,2.54-0.11,5.16-0.05,7.47
		C382.45,247.13,386.62,251.29,394.68,251.45z M387.97,231.99c0.23-3.55,1.91-5.2,5.45-5.34c0.82-0.03,1.64-0.04,2.46-0.04
		c0.59,0,1.18,0,1.77,0.01c0.62,0,1.24,0.01,1.86,0.01l5.35,0c0.25,0.04,0.51,0.05,0.78,0.05c1.37,0,2.75-0.02,4.12-0.04
		c1.32-0.02,2.63-0.04,3.95-0.04c1.76,0,3.2,0.04,4.53,0.12c2.23,0.13,3.12,0.95,3.59,1.55c0.92,1.16,1.35,3.13,1.21,5.36
		c-5.59,3.15-10.15,7.19-13.58,12.03c-0.05,0.06-0.08,0.11-0.11,0.15c-0.09,0.01-0.23,0.02-0.45,0.02l-0.16,0
		c-1.34-0.03-2.69-0.04-4.03-0.04c-1.1,0-2.2,0.01-3.3,0.01c-1.08,0.01-2.16,0.01-3.23,0.01c-1.13,0-2.26-0.01-3.39-0.03
		c-5.01-0.1-6.74-1.82-6.86-6.82C387.88,236.65,387.82,234.27,387.97,231.99z"/>
	<path class="st0" d="M333.9,397.01c1.06,1.06,2.5,1.65,4,1.65c0.02,0,0.03,0,0.05,0c2.15-0.02,4.3-0.02,6.46-0.02
		c1.92,0,11.36,0.02,11.51,0.02c0.12,0.01,0.23,0.01,0.35,0.01l11.38,0.02c2.16,0,4.33,0,6.49-0.02c3.1-0.02,5.61-2.53,5.63-5.63
		c0.04-5.47,0.03-11.01,0.02-16.39c0,0-0.01-10.37-0.02-12.1c-0.01-2.57-0.01-5.14-0.01-7.71c0-1.51-0.59-2.96-1.66-4.03
		c-1.06-1.06-2.51-1.66-4.01-1.66c0,0-0.01,0-0.02,0c-5.73,0.02-11.45,0.02-17.18,0.02c-6.31,0-12.63-0.01-18.97-0.03
		c-0.01,0-0.01,0-0.02,0c-1.5,0-2.94,0.6-4.01,1.66c-1.07,1.07-1.67,2.52-1.66,4.02c0.02,9.82,0.05,22.8-0.01,36.15
		C332.23,394.49,332.83,395.94,333.9,397.01z M337.91,356.81c6.35,0.02,12.67,0.03,18.99,0.03c5.73,0,11.46-0.01,17.19-0.02
		c-0.01,2.58,0,5.16,0.01,7.75c0,1.73,0.02,11.8,0.02,11.8c0.01,5.46,0.01,11.08-0.02,16.63c-2.15,0.01-4.3,0.02-6.45,0.02
		c-1.95,0-9.54-0.02-11.38-0.02c-0.11-0.01-0.22-0.01-0.34-0.01c-1.92,0-3.83,0-5.75-0.01c-1.92,0-3.85-0.01-5.77-0.01
		c-2.17,0-4.33,0.01-6.5,0.02C337.95,380.22,337.94,367.72,337.91,356.81z"/>
	<path class="st0" d="M452.1,425.96c-1.06-1.07-2.51-1.67-4.02-1.67c-0.01,0-0.02,0-0.03,0c-6.46,0.03-12.93,0.04-19.39,0.04
		c-5.56,0-11.12-0.01-16.75-0.02c0,0-0.01,0-0.01,0c-1.5,0-2.95,0.6-4.01,1.66c-1.07,1.07-1.66,2.52-1.66,4.03
		c0.04,12.74,0.04,24.56-0.01,36.13c-0.01,1.51,0.59,2.96,1.66,4.03c1.06,1.06,2.51,1.66,4.01,1.66c0.01,0,0.01,0,0.02,0
		c6.29-0.02,12.59-0.03,18.88-0.03c5.75,0,11.5,0.01,17.26,0.04c0.01,0,0.02,0,0.03,0c1.51,0,2.96-0.6,4.02-1.67
		c1.07-1.08,1.66-2.54,1.65-4.05c-0.04-4.05-0.03-8.14-0.02-12.09v-0.14c0.01-1.85,0.01-3.71,0.01-5.57c0-1.7-0.01-5.92-0.01-5.92
		c-0.01-3.81-0.03-8.13,0.02-12.35C453.77,428.5,453.17,427.04,452.1,425.96z M448.06,442.39c0,1.97,0.01,3.94,0.01,5.91
		c0,1.85-0.01,3.7-0.01,5.55c-0.01,4.03-0.02,8.17,0.02,12.3c-5.76-0.03-11.52-0.04-17.28-0.04c-6.3,0-12.6,0.01-18.9,0.03
		c0.04-11.56,0.05-23.44,0.01-36.17c5.63,0.01,11.2,0.02,16.76,0.02c6.47,0,12.95-0.01,19.42-0.04
		C448.04,434.13,448.05,438.32,448.06,442.39z"/>
	<path class="st0" d="M374.91,424.37c-4.79-0.02-9.59-0.03-14.39-0.03l-10.63,0c-3.72,0-7.44,0-11.17-0.01c-0.01,0-0.01,0-0.02,0
		c-1.51,0-2.95,0.6-4.02,1.67c-1.07,1.07-1.66,2.53-1.65,4.04c0.05,7.18,0.04,14.56,0.04,21.06c0,5.04-0.01,10.08,0.01,15.12
		c0.01,3.11,2.53,5.63,5.64,5.65c6.54,0.03,13.09,0.05,19.63,0.05c5.52,0,11.04-0.01,16.55-0.03c3.11-0.01,5.63-2.53,5.65-5.64
		c0.02-4.19,0.02-8.38,0.01-12.56l-0.01-5.67l0.01-5.75c0.01-4.03,0.01-8.17-0.01-12.27C380.53,426.89,378.01,424.38,374.91,424.37z
		 M374.89,442.26l-0.01,5.76l0.01,5.68c0.01,4.18,0.01,8.35-0.01,12.53c-5.51,0.02-11.02,0.03-16.53,0.03
		c-6.54,0-13.07-0.02-19.6-0.05c-0.02-5.03-0.01-10.07-0.01-15.1c0.01-6.92,0.01-14.05-0.04-21.11c3.74,0.01,7.47,0.01,11.19,0.01
		l10.63,0c4.79,0,9.58,0,14.36,0.03C374.91,434.12,374.9,438.25,374.89,442.26z"/>
	<path class="st0" d="M411.45,398.64c5.9,0.02,11.79,0.03,17.69,0.03c6.1,0,12.21-0.01,18.31-0.03c3.11-0.01,5.63-2.53,5.65-5.64
		c0.07-12.05,0.07-24.24,0-36.24c-0.02-3.1-2.53-5.61-5.63-5.64c-2.17-0.02-4.34-0.02-6.52-0.02l-11.55,0.02l-11.31-0.01
		c-2.23,0-4.45,0-6.68,0.02c-3.11,0.02-5.62,2.54-5.64,5.65c-0.05,12.13-0.04,24.31,0.02,36.22
		C405.81,396.11,408.33,398.63,411.45,398.64z M411.45,356.79c2.22-0.01,4.43-0.02,6.65-0.02l11.3,0.01c1.89,0,9.59-0.02,11.55-0.02
		c2.16,0,4.32,0,6.48,0.02c0.07,11.99,0.07,24.14,0,36.17c-6.1,0.02-12.2,0.03-18.29,0.03c-5.89,0-11.78-0.01-17.67-0.03
		C411.41,381.13,411.4,368.98,411.45,356.79z"/>
</g>
</svg>
